<?xml version="1.0" standalone="no"?>
<!DOCTYPE svg PUBLIC "-//W3C//DTD SVG 20010904//EN"
 "http://www.w3.org/TR/2001/REC-SVG-20010904/DTD/svg10.dtd">
<svg version="1.0" xmlns="http://www.w3.org/2000/svg"
 width="700.000000pt" height="700.000000pt" viewBox="0 0 700.000000 700.000000"
 preserveAspectRatio="xMidYMid meet">
<metadata>
Created by potrace 1.14, written by Peter Selinger 2001-2017
</metadata>
<g transform="translate(0.000000,700.000000) scale(0.100000,-0.100000)"
fill="#000000" stroke="none">
<path d="M3278 6995 c-2 -1 -42 -5 -89 -9 -47 -4 -95 -8 -105 -10 -10 -2 -41
-7 -69 -10 -216 -28 -587 -122 -750 -191 -16 -7 -61 -25 -100 -40 -186 -75
-448 -215 -630 -339 -49 -33 -92 -63 -95 -66 -3 -3 -43 -34 -90 -70 -47 -35
-98 -76 -114 -90 -265 -230 -482 -476 -661 -750 -106 -161 -131 -206 -214
-375 -123 -250 -236 -568 -276 -776 -3 -13 -11 -58 -20 -99 -29 -147 -36 -199
-52 -370 -15 -160 -7 -636 12 -710 2 -8 6 -40 10 -70 6 -61 11 -92 25 -165 6
-27 12 -59 14 -70 54 -282 180 -631 332 -924 209 -402 536 -802 879 -1076 28
-22 52 -42 55 -45 14 -14 164 -121 227 -163 463 -302 962 -484 1513 -552 219
-27 632 -27 848 1 102 12 300 49 387 70 55 14 107 27 115 29 8 2 66 19 128 39
912 288 1672 946 2091 1810 115 236 221 539 267 761 60 291 78 463 79 750 0
297 -10 415 -61 690 -85 467 -308 984 -594 1380 -362 502 -885 921 -1453 1164
-248 107 -567 199 -817 236 -25 4 -55 8 -68 10 -12 2 -50 7 -85 10 -34 4 -75
9 -92 12 -35 5 -542 13 -547 8z"/>
</g>
</svg>
